<?xml version="1.0" encoding="UTF-8"?>
<svg width="1000px" height="250px" viewBox="0 0 1000 250" version="1.1" xmlns="http://www.w3.org/2000/svg" xmlns:xlink="http://www.w3.org/1999/xlink">
    <!-- Generator: Sketch 49 (51002) - http://www.bohemiancoding.com/sketch -->
    <title>LOGO_TEXT-BLUE-GRADIENT</title>
    <desc>Created with Sketch.</desc>
    <defs>
        <linearGradient x1="50%" y1="0%" x2="50%" y2="100%" id="linearGradient-1">
            <stop stop-color="#5CA8DC" offset="17.1468569%"></stop>
            <stop stop-color="#2F6FB6" offset="100%"></stop>
        </linearGradient>
        <linearGradient x1="50%" y1="0%" x2="50%" y2="100%" id="linearGradient-2">
            <stop stop-color="#535B5F" offset="0%"></stop>
            <stop stop-color="#292E31" offset="100%"></stop>
        </linearGradient>
    </defs>
    <g id="LOGO_TEXT-BLUE-GRADIENT" stroke="none" stroke-width="1" fill="none" fill-rule="evenodd">
        <g id="Logo-with-text" transform="translate(36.000000, 11.000000)">
            <path d="M40.7343817,202.075484 C43.1235116,199.588222 45.6767044,196.937264 46.9573092,195.58858 C49.4340922,192.982023 51.5248025,190.809074 53.1002038,189.210384 C78.4770773,206.644344 113.219775,203.842371 135.55534,181.603644 C157.906778,157.566454 169.176103,145.579779 169.363314,145.643617 L184.247523,160.489355 L184.247523,100.528124 L120.524939,166.696413 C106.47979,180.698488 84.7274154,183.477262 67.5485997,173.08336 C128.216662,112.596202 158.621967,82.3743307 158.764515,82.4177477 L160.530281,84.1789815 L166.174334,89.8085467 L185,41 L136.064544,59.7701041 C141.036205,64.7598114 143.499186,67.3312452 143.453487,67.4844055 C82.7782059,127.974295 52.3631242,158.179616 52.2082415,158.100367 C42.1642601,141.040467 44.9186522,119.374294 58.9046727,105.357702 L125.300476,41.7526397 L65.2027181,41.7526397 C75.1873014,51.736258 80.1544539,56.8050607 80.1041758,56.9590479 L43.780289,90.5490587 C20.9695734,113.5024 18.8688703,149.471629 38.0118693,174.790004 C36.993112,175.880915 30.889936,182.088704 25.9613482,187.108026 C9.7381203,167.348485 0,142.061473 0,114.5 C0,51.2633961 51.2633961,0 114.5,0 C177.736604,0 229,51.2633961 229,114.5 C229,177.736604 177.736604,229 114.5,229 C86.3973228,229 60.6593062,218.875684 40.7343817,202.075484 Z" id="Combined-Shape" fill="url(#linearGradient-1)"></path>
            <path d="M307.982168,129.808824 L307.982168,167.529412 L286,167.529412 L286,60.4705882 L327.619571,60.4705882 C335.63089,60.4705882 342.677325,61.9411618 348.759089,64.8823529 C354.840852,67.8235441 359.518122,72.0024239 362.791039,77.4191176 C366.063956,82.8358114 367.70039,88.9999654 367.70039,95.9117647 C367.70039,106.402013 364.122218,114.673989 356.965765,120.727941 C349.809312,126.781893 339.905224,129.808824 327.253202,129.808824 L307.982168,129.808824 Z M307.982168,111.941176 L327.619571,111.941176 C333.432662,111.941176 337.865688,110.568641 340.918782,107.823529 C343.971877,105.078418 345.498401,101.156888 345.498401,96.0588235 C345.498401,90.8136993 343.959664,86.5735456 340.882146,83.3382353 C337.804627,80.102925 333.554783,78.436275 328.132488,78.3382353 L307.982168,78.3382353 L307.982168,111.941176 Z M462.076187,116.426471 C462.076187,126.965739 460.219933,136.205843 456.507371,144.147059 C452.794809,152.088275 447.482504,158.215665 440.570299,162.529412 C433.658094,166.843159 425.732381,169 416.792921,169 C407.951161,169 400.062084,166.867668 393.125454,162.602941 C386.188824,158.338214 380.815459,152.247589 377.005198,144.330882 C373.194936,136.414176 371.26541,127.308875 371.21656,117.014706 L371.21656,111.720588 C371.21656,101.18132 373.10945,91.9044518 376.895287,83.8897059 C380.681123,75.8749599 386.030064,69.7230607 392.942269,65.4338235 C399.854474,61.1445864 407.755763,59 416.646373,59 C425.536984,59 433.438273,61.1445864 440.350478,65.4338235 C447.262683,69.7230607 452.611623,75.8749599 456.39746,83.8897059 C460.183297,91.9044518 462.076187,101.15681 462.076187,111.647059 L462.076187,116.426471 Z M439.535183,111.408824 C439.535183,100.183277 437.532384,91.6539507 433.526724,85.8205882 C429.521065,79.9872257 423.805758,77.0705882 416.380633,77.0705882 C409.004358,77.0705882 403.313476,79.9504614 399.307816,85.7102941 C395.302157,91.4701268 393.274933,99.9136699 393.226083,111.041176 L393.226083,116.261765 C393.226083,127.193192 395.228883,135.673499 399.234543,141.702941 C403.240202,147.732383 409.004357,150.747059 416.527181,150.747059 C423.903457,150.747059 429.569914,147.842676 433.526724,142.033824 C437.483534,136.224971 439.486334,127.756918 439.535183,116.629412 L439.535183,111.408824 Z M524.868982,139.441176 C524.868982,135.274489 523.403519,132.075992 520.472548,129.845588 C517.541578,127.615185 512.26591,125.262267 504.645387,122.786765 C497.024864,120.311262 490.992041,117.872561 486.546736,115.470588 C474.432058,108.901928 468.374811,100.053977 468.374811,88.9264706 C468.374811,83.1421279 469.999032,77.9828658 473.247524,73.4485294 C476.496017,68.914193 481.161074,65.3725618 487.242838,62.8235294 C493.324601,60.2744971 500.151217,59 507.722891,59 C515.343414,59 522.133393,60.3847901 528.093033,63.1544118 C534.052673,65.9240335 538.681094,69.8333081 541.978436,74.8823529 C545.275777,79.9313978 546.924423,85.6666346 546.924423,92.0882353 L524.942256,92.0882353 C524.942256,87.18625 523.403519,83.3750136 520.326,80.6544118 C517.248482,77.9338099 512.925365,76.5735294 507.356521,76.5735294 C501.983076,76.5735294 497.806506,77.7132239 494.826686,79.9926471 C491.846866,82.2720702 490.356978,85.2744912 490.356978,89 C490.356978,92.4804096 492.103322,95.3970471 495.596062,97.75 C499.088801,100.102953 504.230135,102.308813 511.020216,104.367647 C523.52569,108.142176 532.635986,112.823501 538.351378,118.411765 C544.06677,124.000028 546.924423,130.960743 546.924423,139.294118 C546.924423,148.55887 543.431736,155.825954 536.446257,161.095588 C529.460777,166.365222 520.057389,169 508.235808,169 C500.029091,169 492.555229,167.492662 485.813997,164.477941 C479.072765,161.46322 473.931432,157.33336 470.389843,152.088235 C466.848253,146.843111 465.077485,140.76474 465.077485,133.852941 L487.132927,133.852941 C487.132927,145.666726 494.16715,151.573529 508.235808,151.573529 C513.462705,151.573529 517.541578,150.507364 520.472548,148.375 C523.403519,146.242636 524.868982,143.264725 524.868982,139.441176 Z M618.303942,120.665686 L576.09818,120.665686 L576.09818,149.342157 L625.631331,149.342157 L625.631331,167.062745 L554.116012,167.062745 L554.116012,60.0039216 L625.484783,60.0039216 L625.484783,77.8715686 L576.09818,77.8715686 L576.09818,103.386275 L618.303942,103.386275 L618.303942,120.665686 Z M658.133676,167.062745 L636.151508,167.062745 L636.151508,60.0039216 L658.133676,60.0039216 L658.133676,167.062745 Z M668.16536,167.062745 L668.16536,60.0039216 L700.992064,60.0039216 C710.371169,60.0039216 718.760946,62.1239984 726.161646,66.3642157 C733.562346,70.604433 739.338714,76.6337844 743.490922,84.452451 C747.64313,92.2711175 749.719202,101.155833 749.719202,111.106863 L749.719202,116.033333 C749.719202,125.984363 747.679766,134.832314 743.600832,142.577451 C739.521899,150.322588 733.769956,156.32743 726.344831,160.592157 C718.919706,164.856884 710.542141,167.013725 701.211886,167.062745 L668.16536,167.062745 Z M690.174883,78.0745098 L690.174883,149.545098 L700.799598,149.545098 C709.397111,149.545098 715.967271,146.726499 720.510275,141.089216 C725.053279,135.451933 727.373596,127.388288 727.471295,116.898039 L727.471295,111.236275 C727.471295,100.353867 725.224251,92.1064006 720.730097,86.4936275 C716.235942,80.8808543 709.665782,78.0745098 701.019419,78.0745098 L690.174883,78.0745098 Z M844.061782,116.426471 C844.061782,126.965739 842.205528,136.205843 838.492966,144.147059 C834.780403,152.088275 829.468099,158.215665 822.555894,162.529412 C815.643689,166.843159 807.717976,169 798.778516,169 C789.936755,169 782.047678,166.867668 775.111049,162.602941 C768.174419,158.338214 762.801054,152.247589 758.990792,144.330882 C755.180531,136.414176 753.251004,127.308875 753.202155,117.014706 L753.202155,111.720588 C753.202155,101.18132 755.095045,91.9044518 758.880881,83.8897059 C762.666718,75.8749599 768.015659,69.7230607 774.927864,65.4338235 C781.840069,61.1445864 789.741358,59 798.631968,59 C807.522578,59 815.423867,61.1445864 822.336072,65.4338235 C829.248277,69.7230607 834.597218,75.8749599 838.383055,83.8897059 C842.168892,91.9044518 844.061782,101.15681 844.061782,111.647059 L844.061782,116.426471 Z M821.520778,111.408824 C821.520778,100.183277 819.517979,91.6539507 815.512319,85.8205882 C811.50666,79.9872257 805.791353,77.0705882 798.366228,77.0705882 C790.989953,77.0705882 785.299071,79.9504614 781.293411,85.7102941 C777.287752,91.4701268 775.260528,99.9136699 775.211678,111.041176 L775.211678,116.261765 C775.211678,127.193192 777.214478,135.673499 781.220137,141.702941 C785.225797,147.732383 790.989952,150.747059 798.512776,150.747059 C805.889051,150.747059 811.555509,147.842676 815.512319,142.033824 C819.469129,136.224971 821.471929,127.756918 821.520778,116.629412 L821.520778,111.408824 Z M936,167.062745 L914.017832,167.062745 L871.225879,96.6215686 L871.225879,167.062745 L849.243711,167.062745 L849.243711,60.0039216 L871.225879,60.0039216 L914.091106,130.592157 L914.091106,60.0039216 L936,60.0039216 L936,167.062745 Z" id="POSEIDON" fill="url(#linearGradient-2)"></path>
        </g>
    </g>
</svg>