<?xml version="1.0" encoding="UTF-8"?>
<svg width="250px" height="250px" viewBox="0 0 250 250" version="1.1" xmlns="http://www.w3.org/2000/svg" xmlns:xlink="http://www.w3.org/1999/xlink">
    <!-- Generator: Sketch 49 (51002) - http://www.bohemiancoding.com/sketch -->
    <title>LOGO_ONLY-BLACK</title>
    <desc>Created with Sketch.</desc>
    <defs></defs>
    <g id="LOGO_ONLY-BLACK" stroke="none" stroke-width="1" fill="none" fill-rule="evenodd">
        <path d="M46.9401767,218.477208 C49.5286043,215.771015 52.3403313,212.84019 53.7331147,211.367356 C56.3606438,208.59083 58.5786025,206.276186 60.2498885,204.573248 C87.1712918,223.144051 124.028558,220.159366 147.723547,196.470483 C171.435376,170.865864 183.390593,158.097555 183.589199,158.165556 L199.379316,173.979363 L199.379316,110.108148 L131.778341,180.591174 C116.878353,195.506304 93.8020485,198.466278 75.5776669,187.394605 C139.93821,122.963167 172.194094,90.770572 172.345318,90.8168202 L174.218555,92.6929014 L180.206126,98.6895623 L200.177591,46.6982818 L148.263743,66.6923569 C153.537998,72.0074357 156.150885,74.746549 156.102404,74.9096966 C91.7342029,139.344043 59.4679475,171.519008 59.3036381,171.434592 C48.648343,153.262241 51.5703776,130.183248 66.4076388,115.252655 L136.844535,47.5 L73.0890063,47.5 C83.681288,58.1346354 88.9507597,63.5339674 88.8974215,63.6979959 L50.3627295,99.478362 C26.1636698,123.928458 23.9351102,162.243187 44.2432225,189.212536 C43.1453961,190.392931 36.4820253,197.19734 31.212564,202.586073 C13.8977035,181.55626 3.5,154.617387 3.5,125.25 C3.5,58.0093317 58.0093317,3.5 125.25,3.5 C192.490668,3.5 247,58.0093317 247,125.25 C247,192.490668 192.490668,247 125.25,247 C95.4273547,247 68.1091013,236.277424 46.9401767,218.477208 Z" id="Combined-Shape" fill="#000000"></path>
    </g>
</svg>